<svg xmlns="http://www.w3.org/2000/svg" viewBox="0 0 68.39 99.47"><defs><style>.cls-1,.cls-2{fill:none;}.cls-2{stroke:#000;stroke-linecap:round;stroke-linejoin:round;stroke-width:0;}</style></defs><g id="Слой_2" data-name="Слой 2"><g id="Слой_2-2" data-name="Слой 2"><path class="cls-1" d="M0,1.14A.16.16,0,0,1,0,1,.16.16,0,0,1,.14.94a.17.17,0,0,1,.12,0A.2.2,0,0,1,.37,1L24,27.28a10.66,10.66,0,0,1,2.73,6.83l1.45,50.66A.21.21,0,0,1,28,85a.23.23,0,0,1-.14,0,.18.18,0,0,1-.1-.09l-3-5.1a5.37,5.37,0,0,1-.66-2L19.94,47A21.35,21.35,0,0,0,14.16,35L4.48,25A16.06,16.06,0,0,1,0,13.86H0V99.47H68.39V13.86h0A16.06,16.06,0,0,1,63.91,25L54.23,35A21.35,21.35,0,0,0,48.45,47L44.24,77.83a5.37,5.37,0,0,1-.66,2l-2.95,5.1a.18.18,0,0,1-.1.09.23.23,0,0,1-.14,0,.21.21,0,0,1-.16-.21l1.45-50.66a10.66,10.66,0,0,1,2.73-6.83L68,1a.2.2,0,0,1,.11-.06.17.17,0,0,1,.12,0,.16.16,0,0,1,.1.08.16.16,0,0,1,0,.12V0H0ZM30.6,30.28a2.17,2.17,0,0,1,.56-.75l2.76-2.39a.43.43,0,0,1,.27-.1.43.43,0,0,1,.28.1l2.76,2.39h0a2.17,2.17,0,0,1,.56.75,2.27,2.27,0,0,1,.18.93L36.12,95.7a1,1,0,0,1-.14.5L34.38,99a.3.3,0,0,1-.08.08.2.2,0,0,1-.11,0,.19.19,0,0,1-.1,0A.3.3,0,0,1,34,99l-1.6-2.77a1.07,1.07,0,0,1-.14-.5L30.42,31.21A2.44,2.44,0,0,1,30.6,30.28Z"/><line class="cls-2" x1="68.39" y1="13.86" x2="68.39" y2="13.86"/><path d="M68.25.94a.17.17,0,0,0-.12,0A.2.2,0,0,0,68,1L44.41,27.28a10.66,10.66,0,0,0-2.73,6.83L40.23,84.77a.21.21,0,0,0,.16.21.23.23,0,0,0,.14,0,.18.18,0,0,0,.1-.09l2.95-5.1a5.37,5.37,0,0,0,.66-2L48.45,47A21.35,21.35,0,0,1,54.23,35L63.91,25a16.06,16.06,0,0,0,4.48-11.12V1.14a.16.16,0,0,0,0-.12A.16.16,0,0,0,68.25.94Z"/><line class="cls-2" y1="13.86" y2="13.86"/><path d="M14.16,35A21.35,21.35,0,0,1,19.94,47l4.21,30.86a5.37,5.37,0,0,0,.66,2l3,5.1a.18.18,0,0,0,.1.09A.23.23,0,0,0,28,85a.21.21,0,0,0,.16-.21L26.71,34.11A10.66,10.66,0,0,0,24,27.28L.37,1A.2.2,0,0,0,.26.93a.17.17,0,0,0-.12,0A.16.16,0,0,0,0,1a.16.16,0,0,0,0,.12V13.86A16.06,16.06,0,0,0,4.48,25Z"/><path d="M32.41,96.2,34,99a.3.3,0,0,0,.08.08.19.19,0,0,0,.1,0,.2.2,0,0,0,.11,0,.3.3,0,0,0,.08-.08L36,96.2a1,1,0,0,0,.14-.5L38,31.21a2.27,2.27,0,0,0-.18-.93,2.17,2.17,0,0,0-.56-.75h0l-2.76-2.39a.43.43,0,0,0-.28-.1.43.43,0,0,0-.27.1l-2.76,2.39a2.17,2.17,0,0,0-.56.75,2.44,2.44,0,0,0-.18.93L32.27,95.7A1.07,1.07,0,0,0,32.41,96.2Z"/></g></g></svg>