<?xml version="1.0" encoding="utf-8"?>
<!-- Generator: Adobe Illustrator 26.0.1, SVG Export Plug-In . SVG Version: 6.00 Build 0)  -->
<svg version="1.1" id="Слой_1" xmlns:xodm="http://www.corel.com/coreldraw/odm/2003"
	 xmlns="http://www.w3.org/2000/svg" xmlns:xlink="http://www.w3.org/1999/xlink" x="0px" y="0px" viewBox="0 0 290 106.8"
	 style="enable-background:new 0 0 290 106.8;" xml:space="preserve">
<style type="text/css">
	.st0{fill-rule:evenodd;clip-rule:evenodd;}
</style>
<g id="Слой_x0020_1">
	<path class="st0" d="M103.1,0.2l41.2,20.9v12.2l-41.2,20.9c-0.2,0.1-0.4,0.2-0.6,0.2h-9.4c-0.6,0-1.1-0.3-1.3-0.8
		c-0.2-0.5-0.2-1.1,0.2-1.5l19.8-22.8l22.3-0.9c0.3,0,0.5-0.3,0.5-0.6v-1.1c0-0.3-0.2-0.6-0.5-0.6l-22.3-0.9L92,2.3
		c-0.4-0.4-0.5-1-0.2-1.5C92,0.3,92.5,0,93.1,0h9.4C102.7,0,102.9,0,103.1,0.2z M145.7,21.1l41.2-20.9c0.2-0.1,0.4-0.2,0.6-0.2h9.4
		c0.6,0,1.1,0.3,1.3,0.8s0.2,1.1-0.2,1.5l-19.8,22.8L156,26c-0.3,0-0.5,0.3-0.5,0.6v1.1c0,0.3,0.2,0.6,0.5,0.6l22.3,0.9L198,51.9
		c0.4,0.4,0.5,1,0.2,1.5s-0.7,0.8-1.3,0.8h-9.4c-0.2,0-0.4,0-0.6-0.2l-41.2-20.9V21.1z"/>
	<g id="_1332736897600">
		<path class="st0" d="M62.1,79.6h37.2c4.6,0,8.4,3.8,8.4,8.4v0c0,4.6-3.8,8.4-8.4,8.4H68.8v10.5h-6.7V96.4v-4.1v-1.5h36.5
			c1.5,0,2.8-1.3,2.8-2.8v0c0-1.5-1.3-2.8-2.8-2.8H62.1C62.1,85.2,62.1,79.6,62.1,79.6z"/>
		<path class="st0" d="M129.9,101.2h38.6v5.6h-38.6h-6.7v-5.6V96v-2.6v-3h45.4V96h-38.6V101.2L129.9,101.2z M123.2,79.6h45.4v5.6
			h-45.4C123.2,85.2,123.2,79.6,123.2,79.6z"/>
		<polygon class="st0" points="47,106.8 37,106.8 23.5,96.8 10.1,106.8 0,106.8 18.5,93.1 1.1,80.2 11.2,80.2 23.5,89.4 35.8,80.2 
			45.9,80.2 28.5,93.1 		"/>
		<polygon class="st0" points="191.9,106.8 185.2,106.8 185.2,79.9 184.8,79.6 185.2,79.6 191.6,79.6 191.9,79.6 191.9,79.8 
			222.9,100.3 222.9,100.3 222.9,79.6 229.7,79.6 229.7,106.8 222.9,106.8 191.9,86.3 		"/>
		<path class="st0" d="M256.2,79.6H290v5.6h-32.1c-3.8,0-6.9,3.1-6.9,6.9v2.3c0,3.8,3.1,6.9,6.9,6.9h25.3v-5.4h-22v-5.6h22h4.8h1.9
			c0,5.6,0.1,11,0.1,16.6h-0.2h-33.6h-0.1v0c-6.3-0.1-11.5-5.2-11.5-11.6v-4.1C244.7,84.8,249.9,79.6,256.2,79.6L256.2,79.6z"/>
	</g>
</g>
</svg>
