<svg xmlns="http://www.w3.org/2000/svg" viewBox="0 0 77.69 135.06"><defs><style>.cls-1{fill:none;}</style></defs><g id="Слой_2" data-name="Слой 2"><g id="Слой_1-2" data-name="Слой 1"><polygon class="cls-1" points="71.15 4.91 7.35 4.91 39.25 108.21 71.15 4.91"/><polygon class="cls-1" points="5.95 15.01 5.95 128.71 36.65 114.31 5.95 15.01"/><polygon class="cls-1" points="72.45 128.71 72.45 15.01 41.75 114.31 72.45 128.71"/><polygon class="cls-1" points="13.35 129.91 65.15 129.91 39.25 117.71 13.35 129.91"/><path class="cls-1" d="M77.69,0H0V135.06H77.69Zm-1,132a2.11,2.11,0,0,1-2.1,2.1H3.85a2.11,2.11,0,0,1-2.1-2.1V2.71A2.11,2.11,0,0,1,3.85.61h70.7a2.11,2.11,0,0,1,2.1,2.1Z"/><path d="M74.55.61H3.85a2.11,2.11,0,0,0-2.1,2.1V132a2.11,2.11,0,0,0,2.1,2.1h70.7a2.11,2.11,0,0,0,2.1-2.1V2.71A2.11,2.11,0,0,0,74.55.61Zm-3.4,4.3-31.9,103.3L7.35,4.91ZM6,15l30.7,99.3L6,128.71Zm7.4,114.9,25.9-12.2,25.9,12.2Zm59.1-1.2-30.7-14.4L72.45,15Z"/></g></g></svg>