<svg xmlns="http://www.w3.org/2000/svg" viewBox="0 0 138.56 51.37"><defs><style>.cls-1{fill:none;}</style></defs><g id="Слой_2" data-name="Слой 2"><g id="Слой_1-2" data-name="Слой 1"><path class="cls-1" d="M14.37,24,1.67,0H0V51.37H45.89c-6-.7-12.12-2.63-16.92-6.37C22.47,39.9,18.47,31.7,14.37,24Z"/><path class="cls-1" d="M109.27,0l12.8,24H79l-2.4-4.4L69.47,6.2h-.1L66.07,0H41.77L49,15.3c2.8,5.9,5.9,10.7,14.1,11.1h14.6l13.23,25h2.65l-13.28-25h43.1l13.28,25h1.91V0Z"/><polygon points="80.27 26.4 93.55 51.38 136.65 51.38 123.37 26.4 80.27 26.4"/><polygon points="69.47 6.2 76.57 19.6 78.97 24 122.07 24 109.27 0 66.07 0 69.37 6.2 69.47 6.2"/><path d="M63.07,26.4c-8.2-.4-11.3-5.2-14.1-11.1L41.77,0H1.67l12.7,24c4.1,7.7,8.1,15.9,14.6,21,4.8,3.74,11,5.67,16.92,6.37h45l-13.23-25Z"/></g></g></svg>