<svg xmlns="http://www.w3.org/2000/svg" viewBox="0 0 109 32.96"><defs><style>.cls-1{fill:none;}</style></defs><g id="Слой_2" data-name="Слой 2"><g id="Слой_1-2" data-name="Слой 1"><path class="cls-1" d="M0,0V33H109V0ZM.12,8.21C0,4.49.22,3.71,1.39,2.53,2.34,1.58,3.32,1.24,5.7,1,7.29.87,14.8.54,18.44.45L24.35.37l4.23,0V1c0,.4.12,3.05.25,5.92s.25,5.55.25,6v.77l-.62-.05-2.06-.15c-.79-.07-2.33-.17-3.44-.27S20.2,13,19.28,13s-3.56-.25-5.87-.42c-5.63-.45-6.1-.48-8.13-.67-1-.08-2.43-.2-3.27-.25a6.53,6.53,0,0,1-1.68-.27A16.4,16.4,0,0,1,.12,8.21Zm30.2,21c-.1.18-10.54-1.87-15.09-3C8.4,24.59,4.77,22.82,2.76,20.17A13.89,13.89,0,0,1,.5,13.78l-.12-.72.57.08c.46.09,5.33.49,10.36.86l2,.17c.51.05,1.5.11,2.18.16l2.1.17,6.2.44,5.4.38s.15,1.53.3,3.37.42,4.93.59,6.87S30.35,29.14,30.32,29.19ZM78.13,16.36c0,.55-.25,2.8-.44,5-.5,6.1-.5,6.14-.6,7.13a3.76,3.76,0,0,1-.2,1c-.24.23-10.48,1.79-16,2.45a66.14,66.14,0,0,1-13.33-.1c-3.35-.41-9.42-1.28-13.11-1.88L32.1,29.6,32,29.1c-.1-.65-.9-10-1-12.14l-.1-1.57,1.65.12,2.67.16c.55,0,1.88.12,2.93.17L40.9,16c5.82.42,22.63.42,27.19,0l2.81-.17c1.21-.07,2.52-.13,2.94-.17l2.58-.16,1.81-.12ZM75.43,14l-6.12.35a233.93,233.93,0,0,1-31.08-.08c-7.17-.4-7.47-.42-7.49-.81,0-.15,0-.73-.07-1.29-.08-1.46-.22-4.89-.35-8.65L30.2.22l8.54,0C43.43.17,47.3.1,47.35.05s27.84.1,30.09.2l1.34.09,0,1.62c-.05,2.48-.43,11.69-.5,11.77A11.83,11.83,0,0,1,75.43,14Zm32.92.89c-.63,3.32-1.46,4.93-3.4,6.69-2.65,2.38-6.45,3.75-16.11,5.76-2.3.49-5.51,1.13-7.16,1.43l-3,.54v-.52c0-.74,1.14-13.36,1.21-13.41s2.43-.22,5.33-.42c6.55-.46,7.25-.51,8.29-.61l2.27-.16L97.89,14c.37,0,1.36-.12,2.18-.17s3-.25,4.86-.42,3.41-.3,3.46-.32C108.64,13,108.64,13.36,108.35,14.87Zm.54-4.39-.1,1-3.36.29c-3.83.32-13.76,1.11-15.75,1.24l-2.18.15-2.6.18-3.32.22a6.91,6.91,0,0,1-1.63,0,3.74,3.74,0,0,1,0-.86c0-.4.16-3.36.27-6.58L80.44.29,86.89.4c12,.2,17.66.54,19.27,1.14A4.2,4.2,0,0,1,108.62,4,24.69,24.69,0,0,1,108.89,10.48Z"/><path d="M78.78.34,77.44.25c-2.25-.1-30-.3-30.09-.2s-3.92.12-8.61.13L30.2.22l.12,3.28c.13,3.76.27,7.19.35,8.65,0,.56.07,1.14.07,1.29,0,.39.32.41,7.49.81a233.93,233.93,0,0,0,31.08.08L75.43,14a11.83,11.83,0,0,0,2.83-.25c.07-.08.45-9.29.5-11.77Z"/><path d="M5.28,11.9c2,.19,2.5.22,8.13.67,2.31.17,4.94.37,5.87.42s2.58.17,3.68.25,2.65.2,3.44.27l2.06.15.62.05v-.77c0-.43-.12-3.13-.25-6S28.58,1.44,28.58,1V.32l-4.23,0L18.44.45C14.8.54,7.29.87,5.7,1c-2.38.23-3.36.57-4.31,1.52C.22,3.71,0,4.49.12,8.21a16.4,16.4,0,0,0,.21,3.17A6.53,6.53,0,0,0,2,11.65C2.85,11.7,4.31,11.82,5.28,11.9Z"/><path d="M106.16,1.54C104.55.94,98.93.6,86.89.4L80.44.29l-.22,5.85c-.11,3.22-.23,6.18-.27,6.58a3.74,3.74,0,0,0,0,.86,6.91,6.91,0,0,0,1.63,0l3.32-.22,2.6-.18L89.68,13c2-.13,11.92-.92,15.75-1.24l3.36-.29.1-1A24.69,24.69,0,0,0,108.62,4,4.2,4.2,0,0,0,106.16,1.54Z"/><path d="M29.5,18.69c-.15-1.84-.29-3.35-.3-3.37l-5.4-.38-6.2-.44-2.1-.17c-.68-.05-1.67-.11-2.18-.16l-2-.17c-5-.37-9.9-.77-10.36-.86l-.57-.08.12.72a13.89,13.89,0,0,0,2.26,6.39c2,2.65,5.64,4.42,12.47,6.07,4.55,1.08,15,3.13,15.09,3s-.07-1.7-.23-3.63S29.65,20.54,29.5,18.69Z"/><path d="M108.39,13.09s-1.61.17-3.46.32-4,.35-4.86.42-1.81.13-2.18.17l-2.09.17-2.27.16c-1,.1-1.74.15-8.29.61-2.9.2-5.32.38-5.33.42S78.7,28,78.7,28.77v.52l3-.54c1.65-.3,4.86-.94,7.16-1.43,9.66-2,13.46-3.38,16.11-5.76,1.94-1.76,2.77-3.37,3.4-6.69C108.64,13.36,108.64,13,108.39,13.09Z"/><path d="M73.84,15.67c-.42,0-1.73.1-2.94.17L68.09,16c-4.56.42-21.37.42-27.19,0l-2.77-.17c-1.05-.05-2.38-.13-2.93-.17l-2.67-.16-1.65-.12L31,17c.13,2.12.93,11.49,1,12.14l.09.5,2.31.39c3.69.6,9.76,1.47,13.11,1.88a66.14,66.14,0,0,0,13.33.1c5.56-.66,15.8-2.22,16-2.45a3.76,3.76,0,0,0,.2-1c.1-1,.1-1,.6-7.13.19-2.21.39-4.46.44-5l.1-1-1.81.12Z"/></g></g></svg>